<?xml version="1.0" encoding="utf-8"?>
<!-- Generator: Adobe Illustrator 28.2.0, SVG Export Plug-In . SVG Version: 6.00 Build 0)  -->
<svg version="1.1" id="Capa_1" xmlns="http://www.w3.org/2000/svg" xmlns:xlink="http://www.w3.org/1999/xlink" x="0px" y="0px"
	 viewBox="0 0 193.3 111.9" style="enable-background:new 0 0 193.3 111.9;" xml:space="preserve">
<style type="text/css">
	.st0{fill:#FFFFFF;}
</style>
<g>
	<g>
		<path class="st0" d="M30,49.1c-1.1,1.5-2.5,2.6-4.1,3.3c-1.7,0.7-3.5,1.1-5.4,1.1c-2.1,0-4-0.4-5.7-1.1c-1.7-0.7-3.1-1.7-4.3-2.9
			c-1.2-1.2-2.1-2.6-2.7-4.2c-0.6-1.6-0.9-3.3-0.9-5c0-1.8,0.3-3.4,0.9-5c0.6-1.6,1.5-3,2.7-4.2s2.6-2.2,4.3-2.9
			c1.7-0.7,3.6-1.1,5.8-1.1c1,0,2,0.1,2.9,0.3c0.9,0.2,1.8,0.5,2.5,0.9c0.7,0.4,1.4,0.8,1.9,1.2c0.5,0.5,1,0.9,1.3,1.4l0.6,0.9
			l4.9-3.3L34,27.8c-0.7-0.9-1.5-1.7-2.5-2.4c-1-0.7-2.1-1.3-3.2-1.7c-1.2-0.5-2.4-0.9-3.7-1.1c-1.3-0.3-2.7-0.4-4-0.4
			c-2.8,0-5.4,0.5-7.7,1.4c-2.4,0.9-4.5,2.2-6.2,3.8c-1.8,1.6-3.1,3.6-4.1,5.8c-1,2.2-1.5,4.7-1.5,7.3c0,2.6,0.5,5.1,1.5,7.3
			c1,2.2,2.3,4.2,4.1,5.8c1.7,1.6,3.8,2.9,6.2,3.8c2.4,0.9,5,1.4,7.8,1.4c1.7,0,3.3-0.2,4.7-0.5c1.4-0.3,2.8-0.8,3.9-1.4
			c1.2-0.6,2.3-1.3,3.2-2.1c0.9-0.8,1.7-1.6,2.3-2.5l0.7-1l-4.7-2.8L30,49.1z"/>
		<rect x="39" y="22.1" class="st0" width="6" height="36.6"/>
		<rect x="52.1" y="22.1" class="st0" width="6" height="36.6"/>
		<path class="st0" d="M82.4,42.1c0.8-0.2,1.6-0.4,2.3-0.7c1.3-0.5,2.4-1.2,3.3-2c0.9-0.9,1.7-1.9,2.3-3c0.6-1.2,0.8-2.5,0.8-3.9
			c0-1.9-0.4-3.5-1.1-4.8c-0.7-1.3-1.7-2.4-3-3.2c-1.3-0.8-2.7-1.4-4.4-1.7c-1.6-0.3-3.4-0.5-5.3-0.5H65.2v36.6h6V42.6h4.6
			l10.3,16.1h7.3L82.4,42.1z M71.2,27.3h5.6c1.3,0,2.6,0.1,3.6,0.3c1,0.2,1.9,0.5,2.6,0.9c0.7,0.4,1.1,0.9,1.5,1.5
			c0.4,0.6,0.5,1.4,0.5,2.3c0,1.7-0.6,2.8-2,3.7c-1.5,0.9-3.6,1.4-6.5,1.4h-5.5V27.3z"/>
	</g>
	<g>
		<path class="st0" d="M14.9,76.8c-0.2,0.3-0.4,0.5-0.7,0.8c-0.3,0.2-0.6,0.5-0.9,0.7c-0.3,0.2-0.7,0.3-1.1,0.4
			c-0.4,0.1-0.9,0.2-1.4,0.2c-0.8,0-1.6-0.1-2.3-0.4c-0.7-0.3-1.3-0.7-1.8-1.2c-0.5-0.5-0.9-1.1-1.2-1.8c-0.3-0.7-0.4-1.5-0.4-2.3
			c0-0.8,0.1-1.6,0.4-2.3c0.3-0.7,0.7-1.3,1.2-1.8c0.5-0.5,1.1-0.9,1.8-1.2c0.7-0.3,1.5-0.4,2.3-0.4c0.4,0,0.8,0,1.2,0.1
			c0.4,0.1,0.8,0.2,1.1,0.4c0.3,0.2,0.7,0.3,0.9,0.5s0.5,0.5,0.7,0.7l-0.9,0.7c-0.1-0.2-0.3-0.4-0.5-0.5c-0.2-0.2-0.4-0.3-0.7-0.5
			c-0.3-0.1-0.5-0.2-0.8-0.3c-0.3-0.1-0.6-0.1-1-0.1c-0.7,0-1.3,0.1-1.9,0.4s-1,0.6-1.4,1c-0.4,0.4-0.7,0.9-0.9,1.5
			c-0.2,0.6-0.3,1.2-0.3,1.8c0,0.6,0.1,1.2,0.3,1.8c0.2,0.6,0.5,1.1,0.9,1.5c0.4,0.4,0.9,0.8,1.4,1c0.6,0.3,1.2,0.4,1.9,0.4
			c0.6,0,1.2-0.1,1.8-0.4c0.6-0.3,1-0.7,1.4-1.2L14.9,76.8z"/>
		<path class="st0" d="M23.1,74.7c0,0.1,0,0.2,0,0.2c0,0.1,0,0.2,0,0.3h-6c0,0.4,0.1,0.7,0.2,1c0.1,0.3,0.3,0.6,0.6,0.8
			c0.2,0.2,0.5,0.4,0.8,0.6s0.7,0.2,1,0.2c0.5,0,1-0.1,1.4-0.4c0.4-0.3,0.7-0.5,0.9-0.9l0.8,0.6c-0.4,0.5-0.9,0.9-1.4,1.2
			c-0.5,0.2-1.1,0.4-1.7,0.4c-0.5,0-1-0.1-1.5-0.3c-0.5-0.2-0.9-0.5-1.2-0.8c-0.3-0.3-0.6-0.7-0.8-1.2C16.1,76,16,75.5,16,75
			c0-0.5,0.1-1.1,0.3-1.5c0.2-0.5,0.4-0.9,0.8-1.2c0.3-0.3,0.7-0.6,1.2-0.8c0.4-0.2,0.9-0.3,1.4-0.3c0.6,0,1.1,0.1,1.5,0.3
			c0.4,0.2,0.8,0.4,1.1,0.8c0.3,0.3,0.5,0.7,0.7,1.1C23.1,73.8,23.1,74.2,23.1,74.7z M22.1,74.4c0-0.7-0.2-1.2-0.7-1.7
			c-0.4-0.4-1-0.7-1.7-0.7c-0.4,0-0.7,0.1-1,0.2c-0.3,0.1-0.6,0.3-0.8,0.5c-0.2,0.2-0.4,0.5-0.5,0.8c-0.1,0.3-0.2,0.6-0.2,0.9H22.1z
			"/>
		<path class="st0" d="M26.3,71.3c0,0.2,0,0.4,0,0.6c0,0.2,0,0.4,0,0.6h0c0.2-0.4,0.5-0.8,1-1c0.5-0.3,1-0.4,1.5-0.4
			c0.9,0,1.6,0.3,2.1,0.8c0.5,0.5,0.7,1.3,0.7,2.2v4.4h-1.1v-4c0-0.4,0-0.7-0.1-1c-0.1-0.3-0.2-0.6-0.3-0.8
			c-0.1-0.2-0.4-0.4-0.6-0.5c-0.3-0.1-0.6-0.2-1-0.2c-0.3,0-0.5,0.1-0.8,0.2c-0.3,0.1-0.5,0.3-0.7,0.5c-0.2,0.2-0.4,0.5-0.5,0.9
			c-0.1,0.4-0.2,0.8-0.2,1.3v3.7h-1.1v-5.6c0-0.2,0-0.4,0-0.8c0-0.3,0-0.6,0-0.8H26.3z"/>
		<path class="st0" d="M37.7,72.2h-2v4.2c0,0.3,0,0.5,0.1,0.7c0.1,0.2,0.1,0.3,0.2,0.4c0.1,0.1,0.2,0.2,0.3,0.2
			c0.1,0,0.3,0.1,0.4,0.1c0.1,0,0.3,0,0.5-0.1c0.2,0,0.3-0.1,0.5-0.2l0,0.9c-0.2,0.1-0.4,0.1-0.6,0.2c-0.2,0-0.4,0.1-0.7,0.1
			c-0.2,0-0.4,0-0.6-0.1c-0.2-0.1-0.4-0.2-0.6-0.3c-0.2-0.1-0.3-0.3-0.5-0.6c-0.1-0.2-0.2-0.6-0.2-1v-4.5h-1.5v-0.9h1.5v-2h1.1v2h2
			V72.2z"/>
		<path class="st0" d="M39.3,72.2c0-0.3,0-0.6,0-0.8h1c0,0.2,0,0.4,0,0.6s0,0.4,0,0.6h0c0.2-0.4,0.5-0.8,0.9-1
			c0.4-0.3,0.9-0.4,1.4-0.4c0.1,0,0.3,0,0.4,0c0.1,0,0.2,0,0.3,0.1l-0.1,1c-0.1,0-0.2,0-0.3-0.1c-0.1,0-0.3,0-0.4,0
			c-0.3,0-0.5,0.1-0.8,0.2c-0.3,0.1-0.5,0.3-0.7,0.5c-0.2,0.2-0.3,0.5-0.5,0.8c-0.1,0.3-0.2,0.8-0.2,1.2v3.7h-1.1v-5.6
			C39.3,72.7,39.3,72.5,39.3,72.2z"/>
		<path class="st0" d="M51.8,75c0,0.5-0.1,1.1-0.3,1.5c-0.2,0.5-0.5,0.9-0.8,1.2c-0.3,0.3-0.7,0.6-1.2,0.8c-0.5,0.2-1,0.3-1.6,0.3
			c-0.6,0-1.1-0.1-1.5-0.3c-0.5-0.2-0.9-0.5-1.2-0.8c-0.3-0.3-0.6-0.7-0.8-1.2c-0.2-0.5-0.3-1-0.3-1.5c0-0.5,0.1-1.1,0.3-1.5
			c0.2-0.5,0.5-0.9,0.8-1.2c0.3-0.3,0.7-0.6,1.2-0.8c0.5-0.2,1-0.3,1.5-0.3c0.6,0,1.1,0.1,1.6,0.3c0.5,0.2,0.9,0.5,1.2,0.8
			c0.3,0.3,0.6,0.7,0.8,1.2C51.7,73.9,51.8,74.4,51.8,75z M50.7,75c0-0.4-0.1-0.8-0.2-1.1c-0.1-0.4-0.3-0.7-0.5-0.9
			c-0.2-0.3-0.5-0.5-0.9-0.6c-0.3-0.2-0.7-0.2-1.1-0.2c-0.4,0-0.8,0.1-1.1,0.2c-0.3,0.2-0.6,0.4-0.9,0.6c-0.2,0.3-0.4,0.6-0.5,0.9
			c-0.1,0.4-0.2,0.7-0.2,1.1c0,0.4,0.1,0.8,0.2,1.1c0.1,0.4,0.3,0.7,0.5,0.9c0.2,0.3,0.5,0.5,0.9,0.6c0.3,0.2,0.7,0.2,1.1,0.2
			c0.4,0,0.8-0.1,1.1-0.2c0.3-0.2,0.6-0.4,0.9-0.6c0.2-0.3,0.4-0.6,0.5-0.9C50.6,75.7,50.7,75.4,50.7,75z"/>
		<path class="st0" d="M63.9,77.4c-0.3,0.5-0.7,0.8-1.2,1.1c-0.5,0.2-1,0.4-1.5,0.4c-0.6,0-1.1-0.1-1.5-0.3
			c-0.5-0.2-0.9-0.5-1.2-0.8c-0.3-0.3-0.6-0.7-0.8-1.2c-0.2-0.5-0.3-1-0.3-1.5c0-0.5,0.1-1,0.3-1.5c0.2-0.5,0.4-0.9,0.8-1.2
			c0.3-0.3,0.7-0.6,1.2-0.8c0.5-0.2,1-0.3,1.5-0.3c0.5,0,1,0.1,1.5,0.4c0.5,0.2,0.9,0.6,1.2,1.1h0v-5.7H65v11.7h-1.1L63.9,77.4
			L63.9,77.4z M58.5,75c0,0.4,0.1,0.8,0.2,1.1c0.1,0.4,0.3,0.7,0.5,0.9c0.2,0.3,0.5,0.5,0.9,0.6c0.3,0.2,0.7,0.2,1.2,0.2
			c0.4,0,0.8-0.1,1.1-0.2c0.3-0.2,0.6-0.4,0.9-0.6c0.2-0.3,0.4-0.6,0.6-0.9C64,75.7,64,75.4,64,75c0-0.4-0.1-0.8-0.2-1.2
			c-0.1-0.4-0.3-0.7-0.6-0.9c-0.2-0.3-0.5-0.5-0.9-0.6C62,72.1,61.7,72,61.2,72c-0.4,0-0.8,0.1-1.2,0.2c-0.3,0.2-0.6,0.4-0.9,0.6
			c-0.2,0.3-0.4,0.6-0.5,0.9C58.6,74.2,58.5,74.5,58.5,75z"/>
		<path class="st0" d="M74.4,74.7c0,0.1,0,0.2,0,0.2c0,0.1,0,0.2,0,0.3h-6c0,0.4,0.1,0.7,0.2,1c0.1,0.3,0.3,0.6,0.6,0.8
			c0.2,0.2,0.5,0.4,0.8,0.6s0.7,0.2,1,0.2c0.5,0,1-0.1,1.4-0.4c0.4-0.3,0.7-0.5,0.9-0.9l0.8,0.6c-0.4,0.5-0.9,0.9-1.4,1.2
			c-0.5,0.2-1.1,0.4-1.7,0.4c-0.5,0-1-0.1-1.5-0.3c-0.5-0.2-0.9-0.5-1.2-0.8c-0.3-0.3-0.6-0.7-0.8-1.2c-0.2-0.5-0.3-1-0.3-1.5
			c0-0.5,0.1-1.1,0.3-1.5c0.2-0.5,0.4-0.9,0.8-1.2c0.3-0.3,0.7-0.6,1.2-0.8c0.4-0.2,0.9-0.3,1.4-0.3c0.6,0,1.1,0.1,1.5,0.3
			c0.4,0.2,0.8,0.4,1.1,0.8s0.5,0.7,0.7,1.1C74.3,73.8,74.4,74.2,74.4,74.7z M73.3,74.4c0-0.7-0.2-1.2-0.7-1.7
			c-0.4-0.4-1-0.7-1.7-0.7c-0.4,0-0.7,0.1-1,0.2c-0.3,0.1-0.6,0.3-0.8,0.5c-0.2,0.2-0.4,0.5-0.5,0.8c-0.1,0.3-0.2,0.6-0.2,0.9H73.3z
			"/>
		<path class="st0" d="M81.7,77.6h5.9v1h-7v-11h6.8v1h-5.7v3.8H87v1h-5.3V77.6z"/>
		<path class="st0" d="M93.5,73c-0.2-0.3-0.4-0.5-0.7-0.7c-0.3-0.2-0.7-0.3-1.1-0.3c-0.2,0-0.4,0-0.6,0.1c-0.2,0-0.4,0.1-0.5,0.2
			c-0.1,0.1-0.3,0.2-0.3,0.4c-0.1,0.1-0.1,0.3-0.1,0.5c0,0.3,0.1,0.6,0.4,0.8c0.3,0.2,0.7,0.3,1.3,0.5c0.9,0.2,1.5,0.4,1.9,0.8
			c0.4,0.3,0.6,0.8,0.6,1.4c0,0.4-0.1,0.8-0.2,1c-0.2,0.3-0.4,0.5-0.6,0.7c-0.3,0.2-0.5,0.3-0.9,0.4c-0.3,0.1-0.7,0.1-1,0.1
			c-0.5,0-1.1-0.1-1.6-0.3c-0.5-0.2-0.9-0.6-1.3-1.1l0.8-0.6c0.2,0.3,0.5,0.6,0.8,0.8c0.4,0.2,0.8,0.3,1.2,0.3c0.2,0,0.4,0,0.6-0.1
			c0.2,0,0.4-0.1,0.5-0.2c0.2-0.1,0.3-0.2,0.4-0.4s0.1-0.4,0.1-0.6c0-0.4-0.2-0.7-0.5-0.9c-0.4-0.2-0.9-0.4-1.6-0.5
			c-0.2-0.1-0.4-0.1-0.7-0.2c-0.2-0.1-0.5-0.2-0.7-0.3c-0.2-0.1-0.4-0.3-0.5-0.6c-0.1-0.2-0.2-0.5-0.2-0.9c0-0.4,0.1-0.7,0.2-1
			c0.1-0.3,0.3-0.5,0.6-0.6s0.5-0.3,0.8-0.4c0.3-0.1,0.6-0.1,1-0.1c0.5,0,1,0.1,1.5,0.3c0.5,0.2,0.8,0.5,1.1,1L93.5,73z"/>
		<path class="st0" d="M99.8,72.2h-2v4.2c0,0.3,0,0.5,0.1,0.7c0.1,0.2,0.1,0.3,0.2,0.4c0.1,0.1,0.2,0.2,0.3,0.2
			c0.1,0,0.3,0.1,0.4,0.1c0.1,0,0.3,0,0.5-0.1c0.2,0,0.3-0.1,0.5-0.2l0,0.9c-0.2,0.1-0.4,0.1-0.6,0.2c-0.2,0-0.4,0.1-0.7,0.1
			c-0.2,0-0.4,0-0.6-0.1c-0.2-0.1-0.4-0.2-0.6-0.3c-0.2-0.1-0.3-0.3-0.5-0.6c-0.1-0.2-0.2-0.6-0.2-1v-4.5h-1.5v-0.9h1.5v-2h1.1v2h2
			V72.2z"/>
		<path class="st0" d="M106.7,78.6c0-0.2,0-0.4,0-0.6s0-0.4,0-0.6h0c-0.2,0.4-0.5,0.8-1,1c-0.5,0.3-1,0.4-1.5,0.4
			c-0.9,0-1.6-0.3-2.1-0.8c-0.5-0.5-0.7-1.3-0.7-2.2v-4.4h1.1v4c0,0.4,0,0.7,0.1,1c0.1,0.3,0.2,0.6,0.3,0.8c0.1,0.2,0.4,0.4,0.6,0.5
			c0.3,0.1,0.6,0.2,1,0.2c0.3,0,0.5-0.1,0.8-0.2c0.3-0.1,0.5-0.3,0.7-0.5c0.2-0.2,0.4-0.5,0.5-0.9c0.1-0.4,0.2-0.8,0.2-1.3v-3.7h1.1
			V77c0,0.2,0,0.4,0,0.8c0,0.3,0,0.6,0,0.8H106.7z"/>
		<path class="st0" d="M116.4,77.4c-0.3,0.5-0.7,0.8-1.2,1.1c-0.5,0.2-1,0.4-1.5,0.4c-0.6,0-1.1-0.1-1.5-0.3
			c-0.5-0.2-0.9-0.5-1.2-0.8c-0.3-0.3-0.6-0.7-0.8-1.2c-0.2-0.5-0.3-1-0.3-1.5c0-0.5,0.1-1,0.3-1.5c0.2-0.5,0.4-0.9,0.8-1.2
			c0.3-0.3,0.7-0.6,1.2-0.8c0.5-0.2,1-0.3,1.5-0.3c0.5,0,1,0.1,1.5,0.4c0.5,0.2,0.9,0.6,1.2,1.1h0v-5.7h1.1v11.7h-1.1L116.4,77.4
			L116.4,77.4z M111,75c0,0.4,0.1,0.8,0.2,1.1c0.1,0.4,0.3,0.7,0.5,0.9c0.2,0.3,0.5,0.5,0.9,0.6c0.3,0.2,0.7,0.2,1.2,0.2
			c0.4,0,0.8-0.1,1.1-0.2c0.3-0.2,0.6-0.4,0.9-0.6c0.2-0.3,0.4-0.6,0.6-0.9c0.1-0.4,0.2-0.7,0.2-1.2c0-0.4-0.1-0.8-0.2-1.2
			c-0.1-0.4-0.3-0.7-0.6-0.9c-0.2-0.3-0.5-0.5-0.9-0.6c-0.3-0.1-0.7-0.2-1.1-0.2c-0.4,0-0.8,0.1-1.2,0.2c-0.3,0.2-0.6,0.4-0.9,0.6
			c-0.2,0.3-0.4,0.6-0.5,0.9C111.1,74.2,111,74.5,111,75z"/>
		<path class="st0" d="M121.6,68.5c0,0.2-0.1,0.4-0.2,0.5c-0.2,0.1-0.3,0.2-0.5,0.2c-0.2,0-0.4-0.1-0.5-0.2
			c-0.2-0.1-0.2-0.3-0.2-0.5c0-0.2,0.1-0.4,0.2-0.5c0.2-0.1,0.3-0.2,0.5-0.2c0.2,0,0.4,0.1,0.5,0.2
			C121.5,68.1,121.6,68.3,121.6,68.5z M121.4,78.6h-1.1v-7.2h1.1V78.6z"/>
		<path class="st0" d="M131.4,75c0,0.5-0.1,1.1-0.3,1.5c-0.2,0.5-0.5,0.9-0.8,1.2c-0.3,0.3-0.7,0.6-1.2,0.8c-0.5,0.2-1,0.3-1.6,0.3
			c-0.6,0-1.1-0.1-1.5-0.3c-0.5-0.2-0.9-0.5-1.2-0.8c-0.3-0.3-0.6-0.7-0.8-1.2c-0.2-0.5-0.3-1-0.3-1.5c0-0.5,0.1-1.1,0.3-1.5
			c0.2-0.5,0.5-0.9,0.8-1.2c0.3-0.3,0.7-0.6,1.2-0.8c0.5-0.2,1-0.3,1.5-0.3c0.6,0,1.1,0.1,1.6,0.3c0.5,0.2,0.9,0.5,1.2,0.8
			c0.3,0.3,0.6,0.7,0.8,1.2C131.3,73.9,131.4,74.4,131.4,75z M130.3,75c0-0.4-0.1-0.8-0.2-1.1c-0.1-0.4-0.3-0.7-0.5-0.9
			c-0.2-0.3-0.5-0.5-0.9-0.6c-0.3-0.2-0.7-0.2-1.1-0.2s-0.8,0.1-1.1,0.2c-0.3,0.2-0.6,0.4-0.9,0.6c-0.2,0.3-0.4,0.6-0.5,0.9
			c-0.1,0.4-0.2,0.7-0.2,1.1c0,0.4,0.1,0.8,0.2,1.1c0.1,0.4,0.3,0.7,0.5,0.9c0.2,0.3,0.5,0.5,0.9,0.6c0.3,0.2,0.7,0.2,1.1,0.2
			s0.8-0.1,1.1-0.2c0.3-0.2,0.6-0.4,0.9-0.6c0.2-0.3,0.4-0.6,0.5-0.9C130.2,75.7,130.3,75.4,130.3,75z"/>
		<path class="st0" d="M137.5,73c-0.2-0.3-0.4-0.5-0.7-0.7c-0.3-0.2-0.7-0.3-1.1-0.3c-0.2,0-0.4,0-0.6,0.1c-0.2,0-0.4,0.1-0.5,0.2
			c-0.1,0.1-0.3,0.2-0.3,0.4c-0.1,0.1-0.1,0.3-0.1,0.5c0,0.3,0.1,0.6,0.4,0.8c0.3,0.2,0.7,0.3,1.3,0.5c0.9,0.2,1.5,0.4,1.9,0.8
			c0.4,0.3,0.6,0.8,0.6,1.4c0,0.4-0.1,0.8-0.2,1c-0.2,0.3-0.4,0.5-0.6,0.7c-0.3,0.2-0.5,0.3-0.9,0.4c-0.3,0.1-0.7,0.1-1,0.1
			c-0.5,0-1.1-0.1-1.6-0.3c-0.5-0.2-0.9-0.6-1.3-1.1l0.8-0.6c0.2,0.3,0.5,0.6,0.8,0.8c0.4,0.2,0.8,0.3,1.2,0.3c0.2,0,0.4,0,0.6-0.1
			c0.2,0,0.4-0.1,0.5-0.2c0.2-0.1,0.3-0.2,0.4-0.4s0.1-0.4,0.1-0.6c0-0.4-0.2-0.7-0.5-0.9c-0.4-0.2-0.9-0.4-1.6-0.5
			c-0.2-0.1-0.4-0.1-0.7-0.2c-0.2-0.1-0.5-0.2-0.7-0.3c-0.2-0.1-0.4-0.3-0.5-0.6c-0.1-0.2-0.2-0.5-0.2-0.9c0-0.4,0.1-0.7,0.2-1
			c0.1-0.3,0.3-0.5,0.6-0.6s0.5-0.3,0.8-0.4c0.3-0.1,0.6-0.1,1-0.1c0.5,0,1,0.1,1.5,0.3c0.5,0.2,0.8,0.5,1.1,1L137.5,73z"/>
		<path class="st0" d="M5.4,83.1h2v11h-2V83.1z"/>
		<path class="st0" d="M9.7,86.6h1.8v1.2h0c0.2-0.4,0.5-0.7,0.9-1c0.4-0.3,0.9-0.4,1.4-0.4c0.5,0,0.9,0.1,1.2,0.3
			c0.3,0.2,0.6,0.4,0.9,0.7c0.2,0.3,0.4,0.6,0.5,1c0.1,0.4,0.2,0.7,0.2,1.1v4.6h-1.9v-4.1c0-0.2,0-0.4,0-0.7c0-0.2-0.1-0.5-0.2-0.6
			c-0.1-0.2-0.2-0.3-0.4-0.5C13.8,88,13.6,88,13.3,88s-0.6,0.1-0.8,0.2c-0.2,0.1-0.4,0.3-0.5,0.5c-0.1,0.2-0.2,0.4-0.3,0.6
			c-0.1,0.2-0.1,0.5-0.1,0.7v4.1H9.7V86.6z"/>
		<path class="st0" d="M17.6,88.1v-1.5h1.3v-2.2h1.8v2.2h1.9v1.5h-1.9v3.5c0,0.3,0.1,0.6,0.2,0.8c0.1,0.2,0.4,0.3,0.8,0.3
			c0.1,0,0.3,0,0.4,0c0.1,0,0.3-0.1,0.4-0.1l0.1,1.5c-0.2,0.1-0.4,0.1-0.6,0.1c-0.2,0-0.4,0.1-0.7,0.1c-0.5,0-0.9-0.1-1.2-0.2
			c-0.3-0.1-0.6-0.3-0.7-0.6c-0.2-0.2-0.3-0.5-0.4-0.8c-0.1-0.3-0.1-0.7-0.1-1v-3.5H17.6z"/>
		<path class="st0" d="M31,90.4c0,0.1,0,0.2,0,0.2c0,0.1,0,0.2,0,0.2h-5.6c0,0.3,0.1,0.5,0.2,0.7c0.1,0.2,0.3,0.4,0.5,0.6
			c0.2,0.2,0.4,0.3,0.7,0.4c0.2,0.1,0.5,0.1,0.8,0.1c0.5,0,0.9-0.1,1.2-0.3c0.3-0.2,0.6-0.4,0.8-0.7l1.2,1c-0.7,1-1.8,1.5-3.2,1.5
			c-0.6,0-1.1-0.1-1.6-0.3c-0.5-0.2-0.9-0.4-1.3-0.8c-0.4-0.3-0.6-0.7-0.8-1.2c-0.2-0.5-0.3-1-0.3-1.6c0-0.6,0.1-1.1,0.3-1.6
			c0.2-0.5,0.5-0.9,0.8-1.3c0.4-0.3,0.8-0.6,1.2-0.8c0.5-0.2,1-0.3,1.6-0.3c0.5,0,1,0.1,1.4,0.3c0.4,0.2,0.8,0.4,1.1,0.8
			c0.3,0.3,0.6,0.8,0.8,1.3C30.9,89.2,31,89.8,31,90.4z M29.2,89.6c0-0.2,0-0.5-0.1-0.7c-0.1-0.2-0.2-0.4-0.3-0.6
			c-0.1-0.2-0.3-0.3-0.5-0.4c-0.2-0.1-0.5-0.1-0.8-0.1c-0.6,0-1,0.2-1.4,0.5c-0.4,0.3-0.6,0.8-0.6,1.3H29.2z"/>
		<path class="st0" d="M32.8,86.6h1.8v1.2h0c0.2-0.4,0.5-0.8,0.9-1.1c0.4-0.3,0.8-0.4,1.3-0.4c0.1,0,0.1,0,0.2,0c0.1,0,0.2,0,0.2,0
			v1.7c-0.1,0-0.2-0.1-0.3-0.1c-0.1,0-0.2,0-0.3,0c-0.4,0-0.8,0.1-1,0.2c-0.3,0.2-0.5,0.3-0.6,0.6c-0.1,0.2-0.2,0.4-0.3,0.7
			c-0.1,0.2-0.1,0.4-0.1,0.5v4h-1.9V86.6z"/>
		<path class="st0" d="M43.3,88.7c-0.1-0.2-0.4-0.4-0.6-0.5C42.3,88,42,88,41.7,88c-0.3,0-0.6,0.1-0.9,0.2c-0.3,0.1-0.5,0.3-0.6,0.5
			c-0.2,0.2-0.3,0.5-0.4,0.8s-0.1,0.6-0.1,0.9c0,0.3,0,0.6,0.1,0.9c0.1,0.3,0.2,0.5,0.4,0.8c0.2,0.2,0.4,0.4,0.7,0.5
			s0.6,0.2,0.9,0.2c0.3,0,0.6-0.1,0.9-0.2c0.3-0.1,0.5-0.3,0.7-0.5l1.2,1.2c-0.3,0.3-0.7,0.6-1.2,0.8c-0.5,0.2-1,0.3-1.6,0.3
			c-0.5,0-1.1-0.1-1.6-0.3c-0.5-0.2-0.9-0.4-1.3-0.8c-0.4-0.3-0.7-0.8-0.9-1.2c-0.2-0.5-0.3-1-0.3-1.7c0-0.6,0.1-1.1,0.3-1.6
			c0.2-0.5,0.5-0.9,0.9-1.2c0.4-0.3,0.8-0.6,1.3-0.8c0.5-0.2,1-0.3,1.5-0.3s1.1,0.1,1.6,0.3s0.9,0.5,1.2,0.9L43.3,88.7z"/>
		<path class="st0" d="M52.5,94.1h-1.8v-1.2h0c-0.2,0.4-0.5,0.7-0.9,1c-0.4,0.3-0.9,0.4-1.4,0.4c-0.5,0-0.9-0.1-1.2-0.3
			c-0.3-0.2-0.6-0.4-0.9-0.7c-0.2-0.3-0.4-0.6-0.5-1c-0.1-0.4-0.2-0.7-0.2-1.1v-4.6h1.9v4.1c0,0.2,0,0.4,0,0.7
			c0,0.2,0.1,0.5,0.2,0.6c0.1,0.2,0.2,0.3,0.4,0.5c0.2,0.1,0.4,0.2,0.7,0.2c0.3,0,0.5-0.1,0.8-0.2c0.2-0.1,0.4-0.3,0.5-0.5
			c0.1-0.2,0.2-0.4,0.3-0.6c0.1-0.2,0.1-0.5,0.1-0.7v-4.1h1.9V94.1z"/>
		<path class="st0" d="M54.8,82.4h1.9v11.7h-1.9V82.4z"/>
		<path class="st0" d="M57.8,88.1v-1.5h1.3v-2.2H61v2.2h1.9v1.5H61v3.5c0,0.3,0.1,0.6,0.2,0.8c0.1,0.2,0.4,0.3,0.8,0.3
			c0.1,0,0.3,0,0.4,0c0.1,0,0.3-0.1,0.4-0.1l0.1,1.5c-0.2,0.1-0.4,0.1-0.6,0.1c-0.2,0-0.4,0.1-0.7,0.1c-0.5,0-0.9-0.1-1.2-0.2
			c-0.3-0.1-0.6-0.3-0.7-0.6c-0.2-0.2-0.3-0.5-0.4-0.8c-0.1-0.3-0.1-0.7-0.1-1v-3.5H57.8z"/>
		<path class="st0" d="M70.9,94.1h-1.8v-1.2h0c-0.2,0.4-0.5,0.7-0.9,1c-0.4,0.3-0.9,0.4-1.4,0.4c-0.5,0-0.9-0.1-1.2-0.3
			c-0.3-0.2-0.6-0.4-0.9-0.7c-0.2-0.3-0.4-0.6-0.5-1c-0.1-0.4-0.2-0.7-0.2-1.1v-4.6H66v4.1c0,0.2,0,0.4,0,0.7c0,0.2,0.1,0.5,0.2,0.6
			c0.1,0.2,0.2,0.3,0.4,0.5c0.2,0.1,0.4,0.2,0.7,0.2c0.3,0,0.5-0.1,0.8-0.2c0.2-0.1,0.4-0.3,0.5-0.5c0.1-0.2,0.2-0.4,0.3-0.6
			c0.1-0.2,0.1-0.5,0.1-0.7v-4.1h1.9V94.1z"/>
		<path class="st0" d="M73.2,86.6h1.8v1.2h0c0.2-0.4,0.5-0.8,0.9-1.1c0.4-0.3,0.8-0.4,1.3-0.4c0.1,0,0.1,0,0.2,0c0.1,0,0.2,0,0.2,0
			v1.7c-0.1,0-0.2-0.1-0.3-0.1c-0.1,0-0.2,0-0.3,0c-0.4,0-0.8,0.1-1,0.2c-0.3,0.2-0.5,0.3-0.6,0.6c-0.1,0.2-0.2,0.4-0.3,0.7
			c-0.1,0.2-0.1,0.4-0.1,0.5v4h-1.9V86.6z"/>
		<path class="st0" d="M83.2,93.1L83.2,93.1c-0.2,0.3-0.5,0.6-0.9,0.8c-0.4,0.2-0.9,0.3-1.4,0.3c-0.3,0-0.6,0-0.9-0.1
			c-0.3-0.1-0.6-0.2-0.9-0.4c-0.3-0.2-0.5-0.4-0.7-0.7c-0.2-0.3-0.3-0.7-0.3-1.1c0-0.6,0.2-1,0.5-1.3c0.3-0.3,0.7-0.6,1.2-0.8
			c0.5-0.2,1-0.3,1.6-0.3c0.6-0.1,1.2-0.1,1.8-0.1v-0.2c0-0.5-0.2-0.8-0.5-1c-0.3-0.2-0.7-0.3-1.2-0.3c-0.4,0-0.8,0.1-1.1,0.2
			c-0.4,0.2-0.7,0.4-0.9,0.6l-1-1.1c0.4-0.4,0.9-0.7,1.5-0.9c0.6-0.2,1.1-0.3,1.7-0.3c0.7,0,1.2,0.1,1.6,0.3c0.4,0.2,0.8,0.4,1,0.7
			c0.2,0.3,0.4,0.6,0.5,1c0.1,0.4,0.1,0.7,0.1,1.1v4.5h-1.7V93.1z M83.2,90.7h-0.4c-0.3,0-0.6,0-0.9,0c-0.3,0-0.6,0.1-0.9,0.2
			c-0.3,0.1-0.5,0.2-0.7,0.4c-0.2,0.2-0.3,0.4-0.3,0.7c0,0.2,0,0.3,0.1,0.4c0.1,0.1,0.2,0.2,0.3,0.3c0.1,0.1,0.3,0.1,0.4,0.2
			c0.2,0,0.3,0,0.5,0c0.6,0,1.1-0.2,1.5-0.5c0.3-0.3,0.5-0.8,0.5-1.4V90.7z"/>
		<path class="st0" d="M87.1,82.4H89v11.7h-1.9V82.4z"/>
		<path class="st0" d="M98.4,90.4c0,0.1,0,0.2,0,0.2c0,0.1,0,0.2,0,0.2h-5.6c0,0.3,0.1,0.5,0.2,0.7c0.1,0.2,0.3,0.4,0.5,0.6
			c0.2,0.2,0.4,0.3,0.7,0.4c0.2,0.1,0.5,0.1,0.8,0.1c0.5,0,0.9-0.1,1.2-0.3c0.3-0.2,0.6-0.4,0.8-0.7l1.2,1c-0.7,1-1.8,1.5-3.2,1.5
			c-0.6,0-1.1-0.1-1.6-0.3c-0.5-0.2-0.9-0.4-1.3-0.8c-0.4-0.3-0.6-0.7-0.8-1.2c-0.2-0.5-0.3-1-0.3-1.6c0-0.6,0.1-1.1,0.3-1.6
			c0.2-0.5,0.5-0.9,0.8-1.3c0.4-0.3,0.8-0.6,1.2-0.8c0.5-0.2,1-0.3,1.6-0.3c0.5,0,1,0.1,1.4,0.3c0.4,0.2,0.8,0.4,1.1,0.8
			c0.3,0.3,0.6,0.8,0.8,1.3C98.3,89.2,98.4,89.8,98.4,90.4z M96.5,89.6c0-0.2,0-0.5-0.1-0.7c-0.1-0.2-0.2-0.4-0.3-0.6
			c-0.1-0.2-0.3-0.3-0.5-0.4c-0.2-0.1-0.5-0.1-0.8-0.1c-0.6,0-1,0.2-1.4,0.5c-0.4,0.3-0.6,0.8-0.6,1.3H96.5z"/>
		<path class="st0" d="M104.2,88.6c-0.2-0.2-0.4-0.4-0.7-0.6c-0.3-0.2-0.6-0.2-0.9-0.2c-0.3,0-0.6,0.1-0.8,0.2
			c-0.2,0.1-0.4,0.3-0.4,0.6c0,0.3,0.1,0.5,0.4,0.6c0.3,0.1,0.7,0.2,1.2,0.4c0.3,0.1,0.6,0.1,0.8,0.2c0.3,0.1,0.5,0.2,0.8,0.4
			c0.2,0.2,0.4,0.4,0.6,0.6c0.1,0.3,0.2,0.6,0.2,0.9c0,0.5-0.1,0.8-0.3,1.2c-0.2,0.3-0.4,0.6-0.7,0.8c-0.3,0.2-0.6,0.3-1,0.4
			c-0.4,0.1-0.8,0.1-1.2,0.1c-0.6,0-1.1-0.1-1.7-0.3c-0.5-0.2-1-0.5-1.4-0.9l1.2-1.1c0.2,0.3,0.5,0.5,0.8,0.7
			c0.3,0.2,0.7,0.3,1.1,0.3c0.1,0,0.3,0,0.4,0c0.1,0,0.3-0.1,0.4-0.1c0.1-0.1,0.2-0.2,0.3-0.3c0.1-0.1,0.1-0.3,0.1-0.4
			c0-0.3-0.1-0.5-0.4-0.7c-0.3-0.1-0.7-0.3-1.3-0.4c-0.3-0.1-0.5-0.1-0.8-0.2c-0.3-0.1-0.5-0.2-0.7-0.4c-0.2-0.2-0.4-0.4-0.5-0.6
			c-0.1-0.2-0.2-0.5-0.2-0.9c0-0.4,0.1-0.8,0.3-1.1c0.2-0.3,0.4-0.5,0.7-0.7c0.3-0.2,0.6-0.3,0.9-0.4c0.4-0.1,0.7-0.1,1.1-0.1
			c0.5,0,1.1,0.1,1.6,0.3c0.5,0.2,0.9,0.5,1.2,0.9L104.2,88.6z"/>
		<path class="st0" d="M118,90.4c0,0.1,0,0.2,0,0.2c0,0.1,0,0.2,0,0.2h-5.6c0,0.3,0.1,0.5,0.2,0.7c0.1,0.2,0.3,0.4,0.5,0.6
			c0.2,0.2,0.4,0.3,0.7,0.4c0.2,0.1,0.5,0.1,0.8,0.1c0.5,0,0.9-0.1,1.2-0.3c0.3-0.2,0.6-0.4,0.8-0.7l1.2,1c-0.7,1-1.8,1.5-3.2,1.5
			c-0.6,0-1.1-0.1-1.6-0.3c-0.5-0.2-0.9-0.4-1.3-0.8c-0.4-0.3-0.6-0.7-0.8-1.2c-0.2-0.5-0.3-1-0.3-1.6c0-0.6,0.1-1.1,0.3-1.6
			c0.2-0.5,0.5-0.9,0.8-1.3c0.4-0.3,0.8-0.6,1.2-0.8c0.5-0.2,1-0.3,1.6-0.3c0.5,0,1,0.1,1.4,0.3c0.4,0.2,0.8,0.4,1.1,0.8
			c0.3,0.3,0.6,0.8,0.8,1.3C117.9,89.2,118,89.8,118,90.4z M116.1,89.6c0-0.2,0-0.5-0.1-0.7c-0.1-0.2-0.2-0.4-0.3-0.6
			c-0.1-0.2-0.3-0.3-0.5-0.4c-0.2-0.1-0.5-0.1-0.8-0.1c-0.6,0-1,0.2-1.4,0.5c-0.4,0.3-0.6,0.8-0.6,1.3H116.1z"/>
		<path class="st0" d="M123.7,83.1h2v11h-2V83.1z"/>
		<path class="st0" d="M128,86.6h1.8v1.2h0c0.2-0.4,0.5-0.7,0.9-1c0.4-0.3,0.9-0.4,1.4-0.4c0.5,0,0.9,0.1,1.2,0.3
			c0.3,0.2,0.6,0.4,0.9,0.7c0.2,0.3,0.4,0.6,0.5,1c0.1,0.4,0.2,0.7,0.2,1.1v4.6H133v-4.1c0-0.2,0-0.4,0-0.7c0-0.2-0.1-0.5-0.2-0.6
			c-0.1-0.2-0.2-0.3-0.4-0.5c-0.2-0.1-0.4-0.2-0.7-0.2c-0.3,0-0.6,0.1-0.8,0.2c-0.2,0.1-0.4,0.3-0.5,0.5c-0.1,0.2-0.2,0.4-0.3,0.6
			c-0.1,0.2-0.1,0.5-0.1,0.7v4.1H128V86.6z"/>
		<path class="st0" d="M144.6,94.1h-1.8v-1.1h0c-0.3,0.4-0.6,0.8-1.1,1c-0.5,0.2-1,0.3-1.5,0.3c-0.6,0-1.1-0.1-1.5-0.3
			c-0.4-0.2-0.8-0.5-1.1-0.9c-0.3-0.4-0.6-0.8-0.7-1.3c-0.2-0.5-0.3-1-0.3-1.5c0-0.5,0.1-1.1,0.3-1.5c0.2-0.5,0.4-0.9,0.7-1.2
			c0.3-0.4,0.7-0.6,1.1-0.8c0.4-0.2,0.9-0.3,1.5-0.3c0.3,0,0.6,0,0.9,0.1c0.3,0.1,0.5,0.2,0.7,0.3c0.2,0.1,0.4,0.2,0.5,0.4
			c0.1,0.1,0.3,0.3,0.4,0.4h0v-5.2h1.9V94.1z M138.5,90.3c0,0.3,0,0.6,0.1,0.9c0.1,0.3,0.2,0.5,0.4,0.8c0.2,0.2,0.4,0.4,0.7,0.6
			c0.3,0.1,0.6,0.2,0.9,0.2c0.3,0,0.6-0.1,0.9-0.2c0.3-0.1,0.5-0.3,0.7-0.5c0.2-0.2,0.3-0.5,0.4-0.8c0.1-0.3,0.1-0.6,0.1-0.9
			c0-0.3,0-0.6-0.1-0.9c-0.1-0.3-0.2-0.5-0.4-0.8s-0.4-0.4-0.7-0.6c-0.3-0.1-0.6-0.2-0.9-0.2c-0.4,0-0.7,0.1-0.9,0.2
			c-0.3,0.1-0.5,0.3-0.7,0.5c-0.2,0.2-0.3,0.5-0.4,0.8C138.5,89.7,138.5,90,138.5,90.3z"/>
		<path class="st0" d="M146.9,86.6h1.9v7.4h-1.9V86.6z M148.4,83.1h2.1l-2.2,2.2h-1.5L148.4,83.1z"/>
		<path class="st0" d="M158.5,86.6v6.8c0,0.7-0.1,1.3-0.2,1.8c-0.2,0.5-0.4,1-0.8,1.4c-0.3,0.4-0.8,0.7-1.3,0.9
			c-0.5,0.2-1.2,0.3-1.9,0.3c-0.3,0-0.6,0-1-0.1s-0.7-0.1-1-0.2c-0.3-0.1-0.6-0.2-0.9-0.4c-0.3-0.2-0.6-0.3-0.8-0.5l1.1-1.4
			c0.4,0.3,0.8,0.6,1.2,0.8c0.5,0.2,0.9,0.3,1.4,0.3c0.4,0,0.8-0.1,1.1-0.2c0.3-0.1,0.5-0.3,0.7-0.5c0.2-0.2,0.3-0.5,0.4-0.8
			c0.1-0.3,0.1-0.7,0.1-1V93h0c-0.3,0.4-0.6,0.6-1,0.8c-0.4,0.2-0.9,0.3-1.4,0.3c-0.6,0-1.1-0.1-1.5-0.3s-0.8-0.5-1.2-0.8
			c-0.3-0.4-0.6-0.8-0.7-1.2c-0.2-0.5-0.3-1-0.3-1.5c0-0.5,0.1-1,0.3-1.5c0.2-0.5,0.4-0.9,0.7-1.2c0.3-0.4,0.7-0.6,1.1-0.8
			c0.4-0.2,1-0.3,1.5-0.3c0.5,0,1,0.1,1.5,0.3c0.5,0.2,0.8,0.6,1.1,1h0v-1.1H158.5z M154.6,87.9c-0.3,0-0.6,0.1-0.9,0.2
			c-0.3,0.1-0.5,0.3-0.7,0.5c-0.2,0.2-0.3,0.5-0.4,0.7c-0.1,0.3-0.1,0.6-0.1,0.9c0,0.3,0,0.6,0.1,0.9c0.1,0.3,0.2,0.5,0.4,0.7
			c0.2,0.2,0.4,0.4,0.7,0.5s0.6,0.2,0.9,0.2c0.3,0,0.6-0.1,0.9-0.2c0.3-0.1,0.5-0.3,0.7-0.5c0.2-0.2,0.3-0.5,0.4-0.7
			c0.1-0.3,0.2-0.6,0.2-0.9c0-0.3-0.1-0.6-0.2-0.9c-0.1-0.3-0.3-0.5-0.4-0.8c-0.2-0.2-0.4-0.4-0.7-0.5
			C155.2,88,154.9,87.9,154.6,87.9z"/>
		<path class="st0" d="M167.8,90.4c0,0.1,0,0.2,0,0.2c0,0.1,0,0.2,0,0.2h-5.6c0,0.3,0.1,0.5,0.2,0.7c0.1,0.2,0.3,0.4,0.5,0.6
			c0.2,0.2,0.4,0.3,0.7,0.4c0.2,0.1,0.5,0.1,0.8,0.1c0.5,0,0.9-0.1,1.2-0.3c0.3-0.2,0.6-0.4,0.8-0.7l1.2,1c-0.7,1-1.8,1.5-3.2,1.5
			c-0.6,0-1.1-0.1-1.6-0.3c-0.5-0.2-0.9-0.4-1.3-0.8c-0.4-0.3-0.6-0.7-0.8-1.2c-0.2-0.5-0.3-1-0.3-1.6c0-0.6,0.1-1.1,0.3-1.6
			c0.2-0.5,0.5-0.9,0.8-1.3c0.4-0.3,0.8-0.6,1.2-0.8c0.5-0.2,1-0.3,1.6-0.3c0.5,0,1,0.1,1.4,0.3c0.4,0.2,0.8,0.4,1.1,0.8
			c0.3,0.3,0.6,0.8,0.8,1.3C167.8,89.2,167.8,89.8,167.8,90.4z M166,89.6c0-0.2,0-0.5-0.1-0.7c-0.1-0.2-0.2-0.4-0.3-0.6
			c-0.1-0.2-0.3-0.3-0.5-0.4c-0.2-0.1-0.5-0.1-0.8-0.1c-0.6,0-1,0.2-1.4,0.5c-0.4,0.3-0.6,0.8-0.6,1.3H166z"/>
		<path class="st0" d="M169.6,86.6h1.8v1.2h0c0.2-0.4,0.5-0.7,0.9-1c0.4-0.3,0.9-0.4,1.4-0.4c0.5,0,0.9,0.1,1.2,0.3
			c0.3,0.2,0.6,0.4,0.9,0.7c0.2,0.3,0.4,0.6,0.5,1c0.1,0.4,0.2,0.7,0.2,1.1v4.6h-1.9v-4.1c0-0.2,0-0.4,0-0.7c0-0.2-0.1-0.5-0.2-0.6
			s-0.2-0.3-0.4-0.5c-0.2-0.1-0.4-0.2-0.7-0.2s-0.6,0.1-0.8,0.2c-0.2,0.1-0.4,0.3-0.5,0.5c-0.1,0.2-0.2,0.4-0.3,0.6
			c-0.1,0.2-0.1,0.5-0.1,0.7v4.1h-1.9V86.6z"/>
		<path class="st0" d="M183.3,93.1L183.3,93.1c-0.2,0.3-0.5,0.6-0.9,0.8c-0.4,0.2-0.9,0.3-1.4,0.3c-0.3,0-0.6,0-0.9-0.1
			c-0.3-0.1-0.6-0.2-0.9-0.4c-0.3-0.2-0.5-0.4-0.7-0.7c-0.2-0.3-0.3-0.7-0.3-1.1c0-0.6,0.2-1,0.5-1.3c0.3-0.3,0.7-0.6,1.2-0.8
			c0.5-0.2,1-0.3,1.6-0.3c0.6-0.1,1.2-0.1,1.8-0.1v-0.2c0-0.5-0.2-0.8-0.5-1c-0.3-0.2-0.7-0.3-1.2-0.3c-0.4,0-0.8,0.1-1.1,0.2
			s-0.7,0.4-0.9,0.6l-1-1.1c0.4-0.4,0.9-0.7,1.5-0.9c0.6-0.2,1.1-0.3,1.7-0.3c0.7,0,1.2,0.1,1.6,0.3c0.4,0.2,0.8,0.4,1,0.7
			c0.2,0.3,0.4,0.6,0.5,1c0.1,0.4,0.1,0.7,0.1,1.1v4.5h-1.7V93.1z M183.2,90.7h-0.4c-0.3,0-0.6,0-0.9,0c-0.3,0-0.6,0.1-0.9,0.2
			c-0.3,0.1-0.5,0.2-0.7,0.4c-0.2,0.2-0.3,0.4-0.3,0.7c0,0.2,0,0.3,0.1,0.4c0.1,0.1,0.2,0.2,0.3,0.3c0.1,0.1,0.3,0.1,0.4,0.2
			c0.2,0,0.3,0,0.5,0c0.6,0,1.1-0.2,1.5-0.5c0.3-0.3,0.5-0.8,0.5-1.4V90.7z"/>
		<path class="st0" d="M191.2,88.6c-0.2-0.2-0.4-0.4-0.7-0.6c-0.3-0.2-0.6-0.2-0.9-0.2c-0.3,0-0.6,0.1-0.8,0.2
			c-0.2,0.1-0.4,0.3-0.4,0.6c0,0.3,0.1,0.5,0.4,0.6c0.3,0.1,0.7,0.2,1.2,0.4c0.3,0.1,0.6,0.1,0.8,0.2c0.3,0.1,0.5,0.2,0.8,0.4
			c0.2,0.2,0.4,0.4,0.6,0.6c0.1,0.3,0.2,0.6,0.2,0.9c0,0.5-0.1,0.8-0.3,1.2c-0.2,0.3-0.4,0.6-0.7,0.8c-0.3,0.2-0.6,0.3-1,0.4
			c-0.4,0.1-0.8,0.1-1.2,0.1c-0.6,0-1.1-0.1-1.7-0.3c-0.5-0.2-1-0.5-1.4-0.9l1.2-1.1c0.2,0.3,0.5,0.5,0.8,0.7
			c0.3,0.2,0.7,0.3,1.1,0.3c0.1,0,0.3,0,0.4,0c0.1,0,0.3-0.1,0.4-0.1c0.1-0.1,0.2-0.2,0.3-0.3c0.1-0.1,0.1-0.3,0.1-0.4
			c0-0.3-0.1-0.5-0.4-0.7c-0.3-0.1-0.7-0.3-1.3-0.4c-0.3-0.1-0.5-0.1-0.8-0.2c-0.3-0.1-0.5-0.2-0.7-0.4c-0.2-0.2-0.4-0.4-0.5-0.6
			c-0.1-0.2-0.2-0.5-0.2-0.9c0-0.4,0.1-0.8,0.3-1.1c0.2-0.3,0.4-0.5,0.7-0.7c0.3-0.2,0.6-0.3,0.9-0.4c0.4-0.1,0.7-0.1,1.1-0.1
			c0.5,0,1.1,0.1,1.6,0.3c0.5,0.2,0.9,0.5,1.2,0.9L191.2,88.6z"/>
	</g>
</g>
</svg>
